<?xml version="1.0" standalone="no"?>
<!DOCTYPE svg PUBLIC "-//W3C//DTD SVG 20010904//EN"
 "http://www.w3.org/TR/2001/REC-SVG-20010904/DTD/svg10.dtd">
<svg version="1.0" xmlns="http://www.w3.org/2000/svg"
 width="640.000000pt" height="640.000000pt" viewBox="0 0 640.000000 640.000000"
 preserveAspectRatio="xMidYMid meet">

<g transform="translate(0.000000,640.000000) scale(0.100000,-0.100000)"
fill="#000000" stroke="none">
<path d="M5435 3643 l-70 -4 -30 -52 c-21 -38 -399 -693 -432 -750 -5 -9 706
-1 832 9 l70 5 48 85 c26 46 47 88 47 94 0 5 -20 10 -45 10 -25 0 -45 4 -45
10 0 5 43 85 96 176 134 233 154 275 154 321 0 46 -28 78 -81 93 -31 9 -377
11 -544 3z m333 -205 c7 -7 12 -24 12 -38 0 -26 -156 -307 -193 -347 -20 -22
-27 -23 -184 -23 -90 0 -163 2 -163 5 0 16 37 84 162 298 l69 117 142 0 c98 0
147 -4 155 -12z"/>
<path d="M4253 3633 l-72 -4 -81 -148 c-104 -189 -107 -191 -280 -191 -68 0
-130 5 -142 11 -30 16 -20 48 61 190 39 67 71 126 71 130 0 10 -650 1 -863
-11 -140 -8 -153 -10 -215 -41 -105 -52 -151 -107 -294 -354 -70 -121 -134
-237 -143 -257 -17 -43 -19 -91 -5 -119 24 -45 54 -49 323 -49 140 0 289 3
331 7 l77 6 55 93 c30 50 54 94 54 96 0 1 -117 2 -261 0 -187 -2 -265 1 -275
9 -30 24 -16 73 57 195 126 212 130 215 409 224 l205 6 151 92 c84 51 155 92
158 92 14 0 2 -26 -84 -178 -49 -89 -90 -164 -90 -168 0 -4 10 -18 21 -31 l22
-22 -44 -19 c-24 -11 -52 -28 -62 -39 -16 -19 -207 -340 -207 -349 0 -7 205
-4 216 4 6 4 42 62 80 130 101 183 130 202 310 202 88 0 103 -3 119 -20 26
-29 15 -66 -60 -191 -36 -59 -65 -111 -65 -114 0 -7 169 -6 195 1 21 5 205
318 205 348 0 9 -11 23 -25 32 -32 21 -26 28 31 44 34 10 51 22 69 49 32 49
195 339 195 346 0 3 -17 4 -37 3 -21 -1 -70 -4 -110 -5z"/>
<path d="M4645 3626 c-71 -17 -151 -63 -210 -121 -53 -53 -95 -119 -240 -377
-102 -183 -113 -226 -72 -274 l25 -29 191 -3 c321 -6 417 17 524 126 47 48
176 261 303 500 51 96 43 142 -33 181 -30 15 -422 13 -488 -3z m240 -203 c25
-24 14 -58 -57 -184 -74 -129 -119 -186 -164 -205 -45 -19 -249 -21 -270 -3
-26 22 -10 72 62 197 73 125 124 183 176 199 18 6 79 11 135 12 82 1 105 -2
118 -16z"/>
<path d="M2035 3601 c-109 -6 -162 -13 -195 -26 -90 -37 -177 -109 -226 -187
-53 -83 -354 -612 -354 -621 0 -11 211 1 224 13 5 5 32 50 60 101 38 69 58 95
76 100 14 4 98 7 188 8 148 1 162 0 162 -17 0 -9 -22 -55 -49 -102 l-50 -85
92 -3 c51 -2 101 0 112 3 18 5 200 312 348 587 64 120 64 170 1 209 -42 25
-153 31 -389 20z m113 -202 c47 -16 49 -40 7 -117 -60 -109 -47 -104 -247
-110 -124 -3 -177 -2 -182 6 -7 12 29 82 73 140 27 37 87 72 141 83 55 11 174
10 208 -2z"/>
<path d="M1093 3592 c-280 -2 -283 -3 -297 -25 -21 -32 -466 -810 -466 -814 0
-2 51 -2 112 -1 l113 3 50 91 c27 50 56 98 62 106 10 12 54 16 225 21 233 7
289 17 370 68 74 48 129 115 206 254 98 179 104 238 24 278 -39 20 -83 22
-399 19z m152 -222 c20 -22 13 -51 -29 -118 -45 -72 -86 -86 -263 -90 -131 -4
-153 -2 -153 11 0 16 84 172 108 200 13 15 35 17 167 17 138 0 154 -2 170 -20z"/>
</g>
</svg>
