<?xml version="1.0" standalone="no"?>
<!DOCTYPE svg PUBLIC "-//W3C//DTD SVG 20010904//EN"
 "http://www.w3.org/TR/2001/REC-SVG-20010904/DTD/svg10.dtd">
<svg version="1.0" xmlns="http://www.w3.org/2000/svg"
 width="640.000000pt" height="640.000000pt" viewBox="0 0 640.000000 640.000000"
 preserveAspectRatio="xMidYMid meet">

<g transform="translate(0.000000,640.000000) scale(0.100000,-0.100000)"
fill="#000000" stroke="none">
<path d="M3172 5993 c2 -10 12 -18 23 -18 11 0 21 8 23 18 3 13 -3 17 -23 17
-20 0 -26 -4 -23 -17z"/>
<path d="M2015 4730 c-3 -5 1 -10 9 -10 9 0 16 5 16 10 0 6 -4 10 -9 10 -6 0
-13 -4 -16 -10z"/>
<path d="M1217 4723 c-4 -3 -7 -17 -7 -29 0 -22 3 -23 65 -19 35 2 69 6 74 10
6 3 22 -2 36 -11 20 -13 23 -20 14 -35 -5 -10 -14 -19 -20 -19 -17 0 -39 -27
-39 -49 0 -17 5 -19 35 -14 l34 6 -9 -32 c-8 -30 -7 -32 13 -25 12 3 28 11 35
17 14 11 32 -5 32 -28 0 -27 185 -50 213 -27 6 6 63 15 126 22 119 11 135 15
126 31 -4 5 4 13 17 18 13 5 33 18 45 29 22 18 22 20 5 36 -10 9 -31 16 -46
16 -15 0 -37 5 -48 11 -12 7 -48 13 -79 14 -33 1 -69 9 -83 18 -14 9 -31 15
-38 12 -47 -18 -161 -20 -191 -3 -11 5 -32 11 -46 13 -14 2 -35 5 -46 8 -59
14 -125 18 -144 8 -17 -9 -22 -8 -31 9 -11 20 -31 26 -43 13z"/>
<path d="M2156 4715 c4 -8 10 -15 15 -15 22 0 6 -21 -31 -42 -38 -22 -40 -25
-35 -60 5 -30 3 -37 -12 -41 -15 -4 -14 -5 4 -6 12 0 24 -5 27 -10 6 -9 64 0
86 14 7 4 36 7 64 6 59 -1 109 11 131 32 8 9 20 18 27 21 15 5 -57 76 -77 76
-7 0 -24 9 -38 20 -25 20 -28 20 -56 5 -38 -19 -60 -19 -67 0 -4 8 -15 15 -25
15 -12 0 -16 -5 -13 -15z"/>
<path d="M2115 4711 c-7 -12 12 -24 25 -16 11 7 4 25 -10 25 -5 0 -11 -4 -15
-9z"/>
<path d="M2722 4703 c5 -24 21 -26 36 -3 11 18 10 20 -14 20 -18 0 -25 -5 -22
-17z"/>
<path d="M716 4542 c-4 -3 -79 -6 -169 -7 -147 -1 -167 -3 -212 -24 -30 -14
-44 -25 -35 -28 8 -2 25 -9 37 -15 26 -13 226 -4 264 11 13 5 54 14 91 21 56
10 70 10 88 -3 l21 -14 -23 -7 c-13 -3 -32 -6 -43 -6 -17 0 -17 2 -5 10 8 5
10 10 4 10 -16 0 -64 -47 -64 -63 0 -8 -9 -22 -20 -32 -11 -10 -20 -22 -20
-28 0 -17 64 3 83 26 14 18 16 19 10 3 -4 -13 -3 -17 5 -12 11 6 87 -28 98
-45 3 -5 17 -9 31 -9 25 0 26 -1 8 -20 -10 -11 -34 -23 -54 -26 -20 -4 -48
-16 -64 -28 -26 -19 -29 -19 -57 -3 -16 10 -54 19 -85 20 -48 3 -55 1 -55 -16
0 -12 4 -16 13 -11 7 4 9 3 4 -2 -5 -5 -13 -9 -18 -9 -5 0 -9 -4 -9 -10 -1 -5
-8 -21 -16 -33 -9 -13 -14 -25 -12 -26 2 -1 15 -7 30 -14 18 -7 26 -17 22 -26
-8 -21 40 -32 72 -17 14 6 43 11 64 11 21 0 51 5 65 12 14 6 28 8 32 5 9 -10
-26 -34 -62 -43 -21 -5 -25 -8 -12 -11 9 -2 17 -11 17 -19 0 -10 -6 -13 -19
-9 -22 7 -54 -35 -45 -59 4 -12 -4 -14 -44 -13 -28 1 -54 6 -58 10 -4 4 -16 7
-26 7 -11 0 -23 11 -28 26 -9 24 -14 26 -53 21 -100 -13 -271 -53 -308 -73
-23 -12 -28 -12 -39 1 -7 8 -19 15 -26 15 -8 0 -15 6 -15 13 -1 6 -5 -1 -8
-18 -4 -16 -4 -35 0 -40 5 -7 -7 -17 -30 -27 l-37 -16 2 -114 c2 -62 4 -131 5
-153 1 -22 -2 -129 -6 -237 -6 -153 -5 -201 5 -213 7 -8 16 -12 21 -9 5 3 9
-2 9 -10 0 -9 5 -16 10 -16 6 0 10 4 10 8 0 5 53 8 118 7 110 -2 120 -4 145
-27 25 -23 65 -33 175 -40 18 -2 16 -6 -31 -88 l-42 -75 -41 1 c-27 1 -49 9
-62 22 -16 16 -34 20 -81 21 -33 0 -63 -4 -65 -8 -3 -4 -39 -7 -80 -6 -41 1
-80 -1 -86 -5 -6 -4 -9 -29 -8 -61 l3 -54 65 2 c36 1 90 7 121 13 38 8 71 9
100 3 54 -11 80 -7 72 13 -5 15 12 20 21 6 2 -4 -9 -34 -25 -65 -16 -32 -29
-62 -29 -68 0 -6 17 -8 43 -5 23 3 74 5 112 5 l70 1 41 68 c38 63 42 67 75 65
68 -3 154 -16 165 -25 7 -5 21 -4 35 1 23 8 22 9 -11 15 -19 3 -48 7 -65 8
-58 5 -19 23 51 23 48 0 77 5 89 15 11 8 16 10 12 3 -4 -6 -1 -13 5 -16 10 -3
10 -9 2 -23 -16 -28 -6 -44 26 -44 16 0 31 -4 35 -9 3 -6 29 -8 58 -5 l52 4
-35 -14 -35 -13 35 -7 c19 -3 42 -5 50 -4 52 5 110 -3 110 -16 0 -10 23 -15
96 -18 52 -2 98 -8 102 -13 4 -6 27 -10 52 -10 25 -1 83 -4 130 -9 47 -4 114
-9 150 -10 36 -1 120 -8 187 -16 93 -10 120 -16 116 -27 -3 -9 3 -13 21 -13
15 0 43 -7 64 -16 27 -12 79 -18 187 -21 85 -3 156 -10 163 -16 19 -15 43 -18
142 -20 119 -3 114 -21 -6 -24 -53 -1 -111 -7 -128 -12 -17 -6 -67 -10 -111
-10 -44 0 -91 -4 -105 -9 -14 -5 -51 -13 -83 -16 -45 -6 -63 -4 -82 8 -34 23
-71 20 -89 -6 -9 -12 -16 -25 -16 -29 0 -3 53 -11 118 -18 87 -9 124 -17 144
-31 15 -11 33 -17 41 -14 8 3 18 1 22 -5 9 -16 53 -13 84 5 22 13 36 14 72 6
l44 -10 -35 -3 c-19 -1 -42 -2 -50 -1 -8 0 -17 -4 -20 -9 -10 -14 -133 -16
-137 -1 -7 18 -40 15 -61 -6 -12 -12 -26 -16 -38 -12 -10 4 -48 -1 -84 -11
-63 -17 -64 -18 -25 -20 22 -1 45 0 50 1 6 1 80 4 165 5 105 2 145 0 123 -6
-82 -23 44 -60 132 -39 51 12 55 12 55 0 0 -5 -18 -10 -40 -10 -22 0 -40 -4
-40 -8 0 -5 -21 -9 -47 -10 -66 -2 -114 -12 -138 -28 -11 -8 -29 -14 -40 -14
-16 -1 -17 -2 -5 -9 8 -5 58 -10 110 -12 88 -4 95 -3 92 14 -3 17 2 18 55 12
32 -4 65 -9 75 -11 19 -5 38 18 20 24 -17 5 -15 32 3 32 8 0 15 5 15 10 0 7
34 10 95 9 53 -1 99 1 102 5 4 3 -7 6 -23 6 l-29 1 34 14 c18 8 44 15 56 15
13 0 30 7 38 15 8 8 17 12 20 9 3 -3 14 -1 24 6 14 9 8 10 -34 7 -29 -2 -53 0
-53 4 0 13 45 22 85 17 19 -2 36 -1 37 2 2 3 19 13 38 23 l35 18 -50 -7 c-46
-5 -48 -5 -30 9 16 12 31 13 65 6 25 -4 66 -8 93 -9 26 0 47 -4 47 -10 0 -5
-13 -7 -29 -4 -16 3 -37 2 -46 -3 -13 -8 -7 -11 31 -17 30 -4 50 -2 52 4 5 14
32 12 66 -5 19 -10 63 -16 135 -17 l106 -2 -80 -5 c-71 -5 -80 -8 -80 -26 0
-18 -6 -20 -72 -18 -41 1 -73 -2 -73 -7 0 -6 17 -10 38 -10 53 0 205 -21 215
-30 11 -10 115 -3 185 12 59 13 83 4 31 -11 l-34 -9 35 -2 c19 -2 60 -2 90 -1
48 1 52 -1 30 -10 -14 -6 -48 -11 -77 -12 -39 -2 -49 -5 -41 -14 8 -10 3 -13
-21 -13 -17 0 -31 -5 -31 -11 0 -7 16 -10 44 -8 32 3 42 1 39 -8 -6 -15 23
-18 32 -3 3 6 28 8 56 6 31 -2 53 1 59 9 6 7 35 12 73 12 36 0 46 -2 24 -4
-20 -2 -49 -11 -65 -19 -27 -14 -26 -14 27 -14 46 0 52 -2 41 -15 -8 -10 -31
-14 -73 -14 -34 0 -73 -4 -87 -9 -24 -9 -24 -10 13 -17 20 -4 40 -11 43 -16 6
-11 97 -12 145 -2 28 5 30 7 14 14 -16 5 -11 9 23 14 29 5 41 12 38 20 -5 14
25 23 107 32 26 3 47 9 47 14 0 5 9 9 20 9 22 0 27 -15 8 -23 -7 -3 4 -6 25
-6 40 -1 44 -21 4 -21 -20 0 -20 0 -1 -15 10 -8 27 -15 37 -15 9 0 17 -7 17
-15 0 -11 -11 -15 -37 -16 -31 0 -34 -2 -18 -9 11 -5 35 -9 53 -9 17 -1 32 -5
32 -10 0 -6 24 -7 55 -4 36 4 55 2 55 -5 0 -6 9 -12 20 -14 12 -2 20 -7 20
-13 0 -5 16 -13 37 -16 l38 -6 -45 -3 c-25 -1 -58 -6 -75 -11 -21 -6 -9 -7 43
-5 39 2 72 -1 72 -5 0 -5 -11 -9 -24 -9 -14 0 -27 -4 -30 -9 -9 -14 636 -6
716 10 60 11 70 10 85 -4 22 -19 154 -47 227 -47 30 0 66 -4 80 -9 13 -6 50
-11 81 -12 52 -2 56 -4 39 -17 -14 -10 -35 -12 -77 -7 -45 5 -57 3 -51 -6 4
-8 3 -10 -5 -5 -6 4 -9 12 -6 17 4 5 -17 9 -47 9 -30 0 -59 5 -66 12 -9 9 -21
9 -50 0 -22 -7 -80 -12 -130 -12 -50 0 -97 -3 -106 -6 -28 -11 -6 -24 40 -24
25 0 44 -5 44 -11 0 -6 -10 -9 -22 -6 -13 3 -32 1 -43 -3 -12 -5 -14 -9 -6 -9
8 -1 12 -3 9 -6 -3 -3 -52 -8 -109 -10 -247 -11 -455 -27 -465 -37 -9 -10 223
-22 376 -20 l155 2 -75 -20 c-41 -10 -91 -20 -110 -21 -28 -1 -23 -4 30 -15
36 -8 88 -21 115 -29 48 -15 48 -15 10 -10 -22 2 -53 7 -70 11 -53 10 41 -31
117 -52 37 -10 62 -22 56 -26 -24 -14 47 -20 158 -14 111 7 114 7 114 -13 0
-12 5 -20 11 -18 6 1 14 -4 16 -11 4 -11 1 -12 -15 -3 -16 8 -24 8 -36 -4 -9
-10 -17 -11 -21 -5 -8 14 -87 8 -100 -7 -14 -16 -94 -23 -103 -8 -10 17 -40
26 -44 13 -3 -8 -11 -7 -27 2 -19 10 -25 10 -32 -1 -7 -12 -9 -12 -9 0 0 10
-3 11 -13 2 -8 -6 -18 -7 -22 -3 -5 4 -5 2 -2 -5 11 -18 -12 -20 -68 -8 -27 6
-75 10 -105 9 -205 -10 -363 -8 -366 4 -1 7 0 8 3 2 7 -14 23 -12 19 2 -1 7
-1 10 1 7 2 -3 15 -4 29 -1 22 4 23 6 8 16 -21 16 -190 11 -254 -7 -29 -9 -60
-11 -89 -6 -24 5 -48 6 -54 2 -6 -3 -7 -1 -3 5 4 7 1 12 -8 12 -8 0 -18 -5
-22 -11 -5 -9 -41 -10 -133 -4 -161 11 -251 11 -716 2 -372 -6 -381 -6 -393
13 -9 14 -9 19 -1 18 6 -2 14 3 17 11 3 8 0 11 -6 7 -6 -4 -10 2 -9 13 1 18 9
20 107 20 122 0 198 5 208 16 4 4 -73 4 -170 0 -177 -7 -177 -7 -173 14 2 11
0 21 -4 21 -5 0 -11 10 -14 21 -4 15 -11 20 -23 15 -11 -4 -22 1 -31 14 -14
20 -43 28 -43 12 0 -5 -7 -9 -15 -9 -8 0 -15 6 -15 13 0 19 -30 26 -37 8 -4
-10 -13 -14 -29 -10 -12 3 -26 2 -29 -4 -3 -5 -22 -10 -41 -10 -19 0 -34 -4
-34 -9 0 -14 -30 -7 -41 10 -7 11 -9 11 -9 1 0 -7 -4 -11 -9 -8 -5 3 -15 -1
-22 -10 -12 -14 -14 -14 -25 1 -11 14 -14 13 -33 -13 -11 -16 -17 -33 -13 -37
4 -5 1 -5 -5 -1 -7 4 -13 2 -13 -3 0 -6 -4 -11 -10 -11 -5 0 -10 9 -10 20 0
31 -34 25 -46 -8 l-11 -27 -13 28 c-7 15 -19 27 -26 27 -7 0 -14 6 -17 13 -3
9 -8 9 -23 -3 -18 -14 -18 -14 -2 5 13 16 14 23 4 37 -12 16 -14 16 -31 0 -17
-16 -17 -16 -12 6 5 21 3 23 -17 18 -12 -3 -32 1 -44 9 -14 10 -23 12 -27 5
-5 -8 -11 -7 -22 1 -12 10 -16 10 -23 0 -4 -8 -12 -11 -18 -7 -6 3 -13 -10
-17 -34 -4 -22 -11 -40 -16 -40 -5 0 -9 -6 -9 -14 0 -8 -9 -24 -21 -37 -11
-13 -18 -19 -15 -12 7 13 -13 63 -26 63 -4 0 -8 -9 -8 -20 0 -11 -5 -20 -11
-20 -7 0 -9 -9 -6 -21 4 -13 0 -22 -11 -25 -9 -3 -26 -10 -37 -16 -20 -11 -20
-10 -2 10 18 20 18 21 0 30 -10 5 -24 7 -32 4 -8 -3 -11 0 -7 7 5 7 -1 11 -13
11 -12 0 -21 -5 -21 -11 0 -5 -4 -8 -9 -4 -5 3 -12 -4 -16 -15 -3 -11 -12 -20
-18 -20 -7 0 -6 -4 3 -10 13 -9 12 -13 -7 -29 -13 -11 -23 -22 -23 -24 0 -3
10 -8 23 -10 19 -4 18 -4 -5 -6 -22 -1 -28 3 -28 20 0 15 -5 20 -22 17 -18 -2
-23 2 -22 20 1 14 -4 22 -15 22 -13 1 -13 3 3 15 11 8 27 15 36 15 11 0 15 8
14 28 -2 44 -3 45 -19 32 -15 -12 -55 -5 -55 11 0 5 8 9 18 9 19 0 42 18 42
34 0 5 -3 6 -7 3 -3 -4 -13 -1 -21 6 -13 9 -14 9 -8 -1 4 -6 4 -17 0 -24 -5
-8 -10 -6 -14 8 -4 10 -2 25 4 33 9 12 8 14 -5 9 -12 -5 -15 -1 -11 17 5 31
-14 41 -28 14 -8 -15 -8 -19 -1 -15 7 4 9 1 5 -8 -3 -8 -12 -12 -20 -9 -10 4
-14 -4 -14 -30 0 -39 -19 -62 -21 -25 -1 15 -5 8 -12 -19 -15 -54 -36 -78 -38
-42 -1 13 -1 27 0 31 0 5 -4 8 -10 8 -6 0 -1 8 11 18 19 15 21 22 12 38 -6 10
-12 15 -12 10 0 -6 -7 -1 -15 10 -8 11 -15 14 -15 7 0 -18 -20 -16 -20 2 0 8
-5 15 -11 15 -5 0 -9 8 -8 18 2 9 -6 32 -18 50 l-21 33 -11 -32 c-6 -18 -11
-39 -11 -48 0 -14 2 -14 10 -1 5 8 10 10 10 4 0 -18 -21 -32 -41 -27 -23 6
-24 16 -4 33 15 13 21 35 8 27 -5 -3 -9 13 -10 35 -2 60 -52 144 -53 91 -1
-14 -4 -12 -15 7 -13 23 -20 20 -15 -5 1 -5 -4 -5 -10 2 -9 8 -19 3 -41 -20
-17 -19 -29 -26 -28 -17 1 8 1 22 0 30 -1 13 -3 13 -10 1 -7 -12 -13 -12 -24
-3 -7 7 -16 10 -19 7 -3 -3 -13 4 -22 14 -17 19 -20 19 -42 4 -13 -8 -24 -20
-24 -25 0 -5 -7 -16 -15 -24 -13 -14 -15 -12 -15 13 -1 25 -2 26 -14 11 -15
-20 -28 -14 -19 9 5 13 2 13 -20 -2 -24 -16 -27 -16 -27 -1 0 9 -4 16 -9 16
-11 0 -21 -24 -22 -53 0 -12 -3 -16 -6 -9 -4 10 -8 9 -18 -4 -11 -16 -13 -15
-20 15 -4 18 -13 35 -21 38 -8 3 -14 12 -14 21 0 13 -2 13 -18 -1 -13 -12 -21
-14 -29 -6 -8 8 -13 8 -17 0 -4 -6 -4 -11 -1 -11 3 0 0 -6 -7 -13 -7 -8 -20
-12 -30 -9 -12 3 -19 -4 -24 -23 -5 -20 -11 -25 -25 -22 -11 3 -22 1 -25 -4
-3 -5 -13 -9 -22 -9 -12 0 -13 3 -5 11 9 9 6 17 -8 32 -10 11 -19 26 -19 32 0
10 -40 16 -40 5 0 -3 -9 -16 -19 -30 -16 -20 -22 -22 -34 -12 -12 10 -16 8
-21 -13 -4 -17 -13 -25 -29 -25 -20 1 -20 2 -4 11 9 5 17 17 17 24 0 20 -16
19 -24 0 -4 -12 -12 -9 -35 15 -22 24 -30 27 -34 16 -4 -9 1 -20 11 -25 9 -6
13 -11 7 -11 -5 -1 -19 -3 -30 -5 -11 -2 -27 3 -36 11 -14 12 -19 13 -25 2 -5
-7 -9 -19 -9 -27 0 -8 -11 -16 -24 -18 -14 -2 -33 -12 -43 -23 -20 -21 -54
-28 -42 -9 4 8 0 8 -15 0 -19 -11 -21 -9 -21 15 0 20 -4 25 -16 20 -11 -4 -15
-2 -11 8 8 20 -35 30 -46 11 -10 -18 -37 -20 -37 -3 0 6 -6 3 -14 -7 -8 -11
-12 -23 -10 -26 2 -4 -6 -9 -17 -12 -17 -5 -20 -12 -17 -30 4 -21 0 -26 -23
-31 -27 -5 -28 -7 -18 -30 7 -14 19 -27 28 -29 9 -3 -2 -4 -24 -3 -24 0 -47 8
-56 18 -9 10 -19 18 -23 18 -10 0 -7 -188 3 -194 5 -3 14 1 21 9 15 18 31 20
28 3 -2 -7 -15 -19 -30 -27 -29 -14 -36 -39 -17 -58 6 -6 18 -9 25 -6 8 3 14
1 14 -5 0 -5 -7 -13 -16 -16 -8 -3 -12 -10 -9 -16 3 -5 2 -10 -4 -10 -5 0 -12
6 -15 13 -3 6 -4 -7 -4 -30 2 -38 5 -43 26 -43 28 0 62 -17 62 -30 0 -12 -37
-13 -44 -1 -3 5 -15 11 -26 14 -20 5 -20 2 -20 -719 l0 -724 3200 0 3200 0 0
1323 c0 787 -4 1328 -10 1337 -5 8 -24 15 -42 16 -117 6 -190 4 -238 -6 -33
-6 -105 -8 -180 -5 -69 3 -168 2 -220 -4 -57 -5 -99 -6 -105 0 -5 5 -20 9 -35
9 -14 1 -36 7 -50 15 -14 8 -41 15 -60 16 -24 1 -14 4 29 10 35 4 66 11 69 14
13 12 -17 25 -62 27 -44 2 -89 29 -69 41 20 13 83 19 83 8 0 -18 49 -12 70 9
17 17 20 17 20 4 0 -14 3 -14 15 -4 10 8 29 10 55 6 32 -5 40 -3 40 9 0 11 12
15 49 15 28 0 53 4 56 10 3 5 24 14 47 21 23 6 47 17 55 25 8 8 29 15 46 16
63 2 93 6 137 18 25 6 60 11 77 10 47 -1 32 27 -20 39 l-42 9 35 3 c48 3 52 3
77 -5 17 -5 22 -4 18 6 -4 9 10 17 42 25 40 9 52 9 73 -4 14 -9 22 -12 18 -8
-4 4 0 13 9 20 30 22 6 31 -64 24 -37 -4 -86 -11 -107 -15 -30 -5 -37 -4 -32
5 6 9 -7 11 -56 7 -34 -3 -65 -5 -67 -5 -2 -1 2 -8 9 -16 16 -19 4 -38 -17
-26 -9 5 -28 5 -42 0 -14 -4 -47 -10 -74 -12 -46 -4 -47 -3 -30 15 22 25 5 42
-45 43 -57 0 -52 19 8 28 29 4 68 14 86 23 37 18 69 12 61 -10 -7 -18 27 -25
94 -18 30 3 53 10 56 19 9 22 60 44 88 37 34 -8 31 -23 -6 -31 -54 -10 -15
-23 50 -17 44 5 65 12 69 23 3 9 10 19 16 23 6 4 12 42 12 83 1 73 1 76 -20
71 -93 -22 -182 -25 -249 -8 -42 10 -61 11 -71 3 -14 -12 -76 -4 -76 10 0 5
-7 6 -15 3 -24 -10 -18 17 18 71 18 28 46 80 62 117 l30 67 42 1 c23 0 45 5
48 10 3 5 16 10 28 10 12 0 39 11 59 25 28 19 50 25 92 25 l56 0 0 84 c0 96
-2 98 -90 98 -36 -1 -54 -6 -69 -21 -24 -24 -40 -25 -94 -10 -41 11 -41 28 1
30 21 1 18 3 -12 9 -47 9 -86 -1 -184 -47 -45 -21 -83 -32 -96 -29 -11 3 -39
1 -60 -4 -28 -6 -51 -5 -77 4 -26 9 -39 10 -42 3 -2 -6 -21 -11 -43 -10 -21 1
-77 -6 -124 -14 -82 -15 -159 -21 -339 -26 -57 -1 -86 -6 -88 -14 -6 -16 -33
-17 -33 -2 0 5 -4 8 -8 5 -13 -8 -35 11 -28 23 4 6 26 14 48 18 l41 6 -22 19
c-13 10 -31 18 -40 18 -10 0 -21 3 -25 7 -9 9 -156 12 -156 3 0 -4 -39 -11
-87 -17 -49 -6 -108 -16 -133 -22 -36 -10 -46 -9 -55 1 -14 18 -61 38 -89 38
-13 0 -35 9 -50 21 -14 11 -38 22 -53 25 -16 3 -48 18 -71 35 -34 23 -47 27
-57 19 -8 -6 -29 -12 -47 -12 -18 -1 -52 -9 -76 -20 -24 -10 -65 -18 -90 -18
-59 -1 -127 -19 -172 -46 -20 -11 -54 -24 -76 -27 -23 -4 -63 -13 -90 -21 -27
-8 -67 -19 -89 -26 -22 -6 -78 -22 -125 -36 -77 -23 -112 -26 -365 -34 -332
-10 -412 -24 -473 -83 -20 -19 -39 -27 -64 -27 -40 0 -102 -23 -91 -33 3 -4
21 -7 40 -7 l33 0 -19 -39 c-11 -21 -32 -52 -46 -69 -14 -16 -25 -34 -25 -40
0 -5 -25 -18 -55 -29 -30 -12 -55 -18 -55 -14 0 13 40 71 50 71 5 0 7 6 4 13
-3 8 7 33 20 58 29 50 32 88 12 127 -29 55 -68 63 -310 63 -196 0 -298 -13
-361 -45 -71 -36 -168 -134 -222 -226 -12 -22 -24 -28 -50 -28 -18 0 -31 3
-29 7 56 96 72 203 37 235 -43 39 -88 45 -316 46 -121 0 -264 -3 -318 -7 l-98
-6 -41 -69 c-22 -37 -45 -68 -50 -68 -5 0 -7 -4 -3 -9 3 -5 1 -12 -5 -16 -5
-3 -10 -1 -10 6 0 8 -4 8 -15 -1 -11 -9 -15 -9 -15 -1 0 7 -4 10 -9 7 -4 -3
-19 3 -31 14 -13 11 -34 20 -48 20 -30 0 -85 16 -125 36 -16 8 -39 14 -51 14
-34 0 -76 23 -76 43 0 9 -7 17 -15 17 -9 0 -18 6 -21 14 -7 19 -44 28 -136 31
-74 4 -78 3 -79 -18 -1 -18 -2 -17 -9 7 -5 16 -7 33 -4 37 2 4 37 7 77 7 39 0
118 5 175 11 56 5 134 13 173 16 39 3 76 6 82 8 7 1 11 -3 10 -9 -1 -7 17 -10
54 -8 55 3 80 13 56 21 -7 3 -13 11 -13 18 0 9 -21 16 -65 20 -54 6 -65 11
-65 25 0 10 -9 22 -20 25 -11 3 -20 10 -20 15 0 12 44 21 48 10 2 -6 20 -10
39 -10 30 0 35 -3 30 -20 -4 -16 0 -20 17 -20 28 0 86 -19 86 -28 0 -4 43 -7
96 -6 83 1 97 -1 101 -16 4 -15 17 -17 98 -14 52 1 99 5 104 9 6 3 20 1 33 -6
22 -12 83 -13 153 -2 22 3 105 7 185 9 85 2 161 9 185 17 22 8 63 15 90 16 28
1 65 6 82 12 18 6 37 8 42 4 18 -11 111 7 111 21 0 20 66 34 192 39 125 6 168
17 168 47 0 21 29 37 39 20 4 -7 14 -6 31 3 l25 14 -23 1 c-13 0 -32 5 -43 11
-11 5 -38 11 -60 11 -43 0 -61 14 -32 25 10 3 25 12 33 19 8 6 37 24 63 39 40
22 59 26 115 25 37 -1 86 1 109 5 55 10 83 -8 57 -36 -9 -10 -20 -17 -23 -14
-4 2 -13 -1 -21 -6 -10 -6 3 -9 40 -8 31 1 62 8 71 16 9 8 27 13 40 11 40 -5
151 12 181 28 15 8 31 13 35 12 4 -1 27 1 51 5 67 11 54 33 -38 60 -30 9 -72
19 -92 23 -21 3 -42 12 -49 20 -14 17 -41 18 -56 3 -12 -12 -93 5 -93 20 0 13
-57 34 -69 26 -18 -10 -48 4 -54 25 -4 15 -14 20 -37 20 -23 0 -33 5 -37 19
-10 38 -95 32 -107 -7 -14 -42 -43 -55 -126 -59 -57 -3 -80 -1 -80 8 0 7 -8 9
-22 4 -13 -3 -40 -8 -62 -9 -21 -2 -42 -9 -46 -16 -5 -9 -18 -7 -51 9 -31 15
-52 19 -74 14 -41 -9 -61 -5 -125 26 -58 29 -128 34 -165 13 -24 -13 -31 -92
-8 -92 19 0 16 -24 -7 -45 -11 -10 -17 -21 -15 -25 2 -4 -4 -15 -15 -25 -15
-14 -30 -17 -68 -12 -73 9 -101 25 -108 64 -7 39 -23 45 -106 40 -46 -3 -64
-9 -88 -30 -16 -15 -30 -34 -30 -41 0 -8 -5 -18 -12 -22 -7 -5 -9 0 -6 14 3
12 3 21 -1 20 -53 -6 -60 37 -13 86 39 42 35 56 -11 37 -18 -7 -42 -15 -54
-18 -29 -7 -29 -26 -2 -45 l22 -14 -32 -34 c-17 -19 -31 -44 -31 -57 0 -17
-13 -28 -57 -48 -32 -15 -70 -38 -85 -52 -26 -25 -26 -25 -37 -5 -6 11 -20 24
-31 27 -24 8 -27 25 -4 25 14 0 14 1 0 16 -9 8 -16 20 -16 26 0 6 -12 8 -27 5
-61 -12 -67 -12 -70 3 -3 20 92 80 127 80 16 0 30 7 34 15 3 8 12 15 21 15 8
0 15 7 15 15 0 9 12 20 28 26 15 6 47 20 71 30 27 12 47 16 55 11 7 -6 23 -4
41 5 l30 14 -37 -5 c-21 -3 -38 -3 -38 0 0 9 66 44 83 44 14 0 16 -4 7 -19
-14 -26 -13 -31 6 -31 8 0 13 4 10 8 -3 5 17 16 45 26 57 21 64 36 15 36 -19
0 -38 5 -41 10 -3 6 -14 10 -23 10 -15 0 -15 -2 -2 -11 11 -8 4 -9 -25 -4 -22
4 -64 7 -92 6 -29 -1 -53 2 -53 7 0 5 16 17 35 28 26 14 33 23 29 37 -4 13 0
20 16 24 13 3 19 11 16 20 -3 8 4 18 19 25 13 6 22 15 19 19 -3 5 4 9 16 9 15
0 20 5 18 18 -3 14 -16 17 -83 18 -44 0 -100 4 -125 7 -60 10 -267 17 -274 9z
m1000 -359 c-14 -15 -29 -23 -33 -19 -4 4 1 15 12 24 12 10 25 26 30 37 7 18
9 18 12 3 2 -10 -7 -30 -21 -45z m-836 22 c0 -12 -40 -29 -48 -20 -2 2 1 13 7
24 12 21 41 19 41 -4z m785 5 c3 -5 1 -10 -4 -10 -6 0 -11 5 -11 10 0 6 2 10
4 10 3 0 8 -4 11 -10z m874 -16 c-9 -11 -23 -14 -48 -10 -20 3 -44 5 -53 6
-10 0 -18 4 -18 9 0 4 30 9 66 9 58 1 64 -1 53 -14z m-299 -49 c0 -8 -9 -15
-20 -15 -11 0 -20 7 -20 15 0 8 9 15 20 15 11 0 20 -7 20 -15z m-533 -41 c-3
-3 -12 -4 -19 -1 -8 3 -5 6 6 6 11 1 17 -2 13 -5z m697 -79 c-4 -10 -11 -10
-30 -1 -23 11 -30 26 -18 39 10 10 53 -24 48 -38z m-1269 5 c-3 -5 -10 -10
-16 -10 -5 0 -9 5 -9 10 0 6 7 10 16 10 8 0 12 -4 9 -10z m767 -6 c4 -3 8 -16
8 -28 0 -19 -9 -27 -49 -40 -62 -20 -96 -8 -105 36 -3 17 -3 35 0 40 7 10 127
3 146 -8z m408 -14 c0 -5 -4 -10 -9 -10 -6 0 -13 5 -16 10 -3 6 1 10 9 10 9 0
16 -4 16 -10z m-20 -18 c0 -13 -12 -22 -22 -16 -10 6 -1 24 13 24 5 0 9 -4 9
-8z m-2120 -42 c0 -24 -37 -60 -63 -60 -16 0 -13 7 19 40 22 22 40 40 42 40 1
0 2 -9 2 -20z m2021 -36 c6 -3 14 -2 18 5 8 12 51 -13 51 -29 0 -18 -61 -22
-79 -6 -10 9 -22 16 -28 16 -6 0 -16 7 -23 15 -10 12 -7 14 19 10 17 -2 36 -7
42 -11z m-1864 -54 c-12 -21 -37 -27 -37 -11 0 15 31 42 41 36 5 -3 3 -15 -4
-25z m-177 0 c12 -22 -3 -29 -74 -33 -47 -3 -55 13 -19 35 38 24 80 23 93 -2z
m306 -47 c-8 -9 -86 -16 -86 -8 0 12 33 34 53 35 9 0 17 6 18 13 0 6 5 1 10
-12 5 -13 7 -26 5 -28z m859 -53 c0 -12 -12 -14 -58 -12 -31 2 -89 -2 -128 -9
-49 -9 -73 -9 -80 -2 -16 16 16 24 125 33 119 10 141 8 141 -10z m-945 -21 c0
-14 -37 -29 -54 -23 -23 9 -20 23 7 33 24 9 47 4 47 -10z m-333 -136 c-3 -10
-5 -2 -5 17 0 19 2 27 5 18 2 -10 2 -26 0 -35z m73 7 c12 -8 11 -10 -7 -10
-13 0 -23 5 -23 10 0 13 11 13 30 0z m3410 -100 c0 -29 -28 -63 -67 -81 -47
-21 -54 -36 -23 -47 18 -7 19 -9 5 -29 -9 -13 -23 -20 -35 -18 -13 2 -20 -2
-20 -11 0 -17 -16 -19 -23 -1 -4 7 -6 6 -6 -4 -1 -12 -13 -18 -41 -21 -48 -4
-50 2 -10 25 17 10 30 22 30 28 0 15 -33 10 -68 -11 -19 -12 -31 -16 -27 -10
8 13 -2 13 -18 0 -61 -49 -78 -60 -97 -60 -13 0 -20 5 -17 13 5 14 -44 37 -81
37 -15 0 -45 -7 -69 -16 -46 -18 -73 -14 -73 11 0 10 10 15 34 15 32 0 55 14
43 26 -3 3 -39 7 -81 8 -43 2 -80 6 -83 10 -3 3 10 13 30 21 40 16 173 21 147
5 -24 -15 178 -11 242 6 32 8 75 26 95 40 79 54 213 94 213 64z m300 2 c0 -13
-12 -22 -22 -16 -10 6 -1 24 13 24 5 0 9 -4 9 -8z m1948 -74 c20 -20 13 -58
-20 -109 -30 -46 -34 -49 -75 -49 -53 0 -57 17 -5 25 60 10 65 13 51 28 -7 7
-35 12 -68 12 -63 0 -89 -11 -72 -28 15 -15 14 -30 -2 -24 -12 5 -106 -10
-181 -29 -26 -6 -28 -5 -22 12 14 37 77 143 89 151 33 21 286 30 305 11z
m-3613 -50 c33 -15 32 -40 -7 -99 -25 -39 -37 -49 -59 -49 -15 0 -31 -5 -34
-10 -4 -6 -16 -8 -28 -4 -12 4 -50 6 -84 6 -50 -2 -63 1 -63 13 0 11 11 15 41
15 28 0 39 4 36 13 -2 8 -27 11 -85 10 -45 -1 -82 1 -82 5 1 20 68 77 109 93
54 21 215 26 256 7z m-919 -30 c2 -19 -11 -24 -20 -9 -4 5 0 12 6 14 7 3 -3 3
-23 0 -20 -3 -45 0 -55 6 -15 9 -8 11 35 9 43 -2 55 -7 57 -20z m3959 10 c4 4
0 -8 -9 -25 -11 -22 -24 -33 -38 -33 -17 0 -19 3 -10 12 8 8 8 15 1 24 -17 20
-2 35 25 24 13 -5 27 -6 31 -2z m-4615 -22 c0 13 48 10 61 -3 5 -5 2 -17 -7
-29 -12 -14 -14 -15 -11 -3 7 20 -24 20 -37 0 -5 -8 -11 -10 -15 -3 -4 6 -23
5 -55 -3 -49 -13 -76 -11 -76 5 0 4 27 13 60 21 33 7 60 18 60 24 0 5 5 3 10
-5 5 -8 10 -10 10 -4z m-306 -67 c-2 -4 2 -10 8 -12 8 -3 6 -6 -4 -6 -22 -1
-23 -17 -2 -25 13 -5 14 -9 4 -21 -7 -8 -16 -13 -20 -10 -5 3 -20 0 -34 -7
-23 -10 -29 -8 -47 11 -25 26 -21 33 21 35 40 2 44 20 5 25 -26 3 -28 4 -10
12 24 9 86 8 79 -2z m638 -19 c10 0 26 -9 35 -19 9 -11 22 -17 29 -14 7 2 26
-3 43 -11 16 -9 41 -16 56 -16 14 0 25 -5 25 -11 0 -7 -11 -9 -30 -6 -16 4
-32 2 -35 -3 -9 -15 -71 -12 -84 3 -6 8 -8 17 -5 20 3 3 -11 10 -32 16 -59 17
-71 26 -54 46 9 11 16 13 24 5 5 -5 18 -10 28 -10z m-519 -20 c10 0 15 -4 12
-10 -10 -16 -51 -12 -66 7 -13 15 -11 16 11 10 14 -4 33 -7 43 -7z m87 -9 c0
-14 -5 -18 -20 -14 -21 5 -25 15 -13 26 13 14 33 6 33 -12z m55 -11 c-3 -5
-13 -10 -21 -10 -8 0 -12 5 -9 10 3 6 13 10 21 10 8 0 12 -4 9 -10z m5645 -10
c0 -6 6 -10 13 -9 6 1 27 -2 45 -6 35 -8 33 -18 -5 -30 -18 -5 -23 -2 -23 13
0 18 -2 18 -99 -1 -86 -17 -105 -18 -145 -7 -25 7 -46 15 -46 19 0 3 43 6 95
6 62 0 98 4 107 13 15 15 58 16 58 2z m-5650 -20 c0 -5 -4 -10 -9 -10 -6 0
-13 5 -16 10 -3 6 1 10 9 10 9 0 16 -4 16 -10z m-393 -6 c-3 -3 -12 -4 -19 -1
-8 3 -5 6 6 6 11 1 17 -2 13 -5z m776 -1 c-7 -2 -21 -2 -30 0 -10 3 -4 5 12 5
17 0 24 -2 18 -5z m471 -106 c3 3 6 1 6 -7 0 -10 3 -10 16 1 13 11 12 4 -5
-28 -22 -45 -25 -46 -138 -57 -29 -3 -53 -1 -53 3 0 5 25 24 56 42 31 19 61
39 67 45 8 7 18 9 28 3 9 -4 19 -5 23 -2z m-174 -121 c11 -2 10 -5 -5 -10 -11
-4 -27 -12 -35 -17 -33 -20 -41 -21 -54 -4 -7 10 -18 15 -23 12 -6 -4 -13 1
-15 11 -5 16 1 18 56 14 34 -2 68 -4 76 -6z m-180 -20 c0 -3 -4 -8 -10 -11 -5
-3 -10 -1 -10 4 0 6 5 11 10 11 6 0 10 -2 10 -4z m3803 -263 c-7 -2 -19 -2
-25 0 -7 3 -2 5 12 5 14 0 19 -2 13 -5z m530 -60 c-13 -2 -35 -2 -50 0 -16 2
-5 4 22 4 28 0 40 -2 28 -4z m-543 -18 c0 -8 -4 -15 -9 -15 -5 0 -14 7 -21 15
-10 13 -9 15 9 15 12 0 21 -6 21 -15z m288 8 c-10 -2 -28 -2 -40 0 -13 2 -5 4
17 4 22 1 32 -1 23 -4z m-375 -30 c-7 -2 -21 -2 -30 0 -10 3 -4 5 12 5 17 0
24 -2 18 -5z m-403 -11 c22 -1 40 -6 40 -10 0 -5 -24 -5 -52 -2 -29 4 -58 5
-64 3 -7 -2 -15 0 -18 5 -3 5 8 8 24 7 17 -1 48 -2 70 -3z m-1394 -67 c-8 -8
-22 -15 -30 -15 -10 0 -13 6 -10 15 4 8 17 15 31 15 22 0 23 -2 9 -15z m-279
-25 c10 0 25 -5 33 -10 11 -7 -2 -10 -42 -10 -47 0 -56 3 -52 15 4 8 1 15 -6
15 -6 0 -8 5 -5 11 5 7 15 5 31 -5 13 -9 31 -16 41 -16z m131 13 c6 -19 -28
-28 -50 -14 -11 7 -29 9 -41 5 -20 -6 -20 -5 -8 10 17 20 92 19 99 -1z m72 -3
c-20 -13 -47 -13 -55 0 -4 6 9 10 32 10 28 0 34 -3 23 -10z m1187 4 c-3 -3
-12 -4 -19 -1 -8 3 -5 6 6 6 11 1 17 -2 13 -5z m-1611 -19 c-3 -22 -12 -27
-35 -20 -28 8 -27 23 2 28 12 2 25 5 29 6 3 0 5 -6 4 -14z m100 0 c18 -13 16
-14 -23 -15 -24 0 -43 5 -43 11 0 5 4 8 9 4 5 -3 12 -1 16 5 8 14 18 13 41 -5z
m469 -15 c-3 -5 -21 -10 -38 -9 -31 1 -31 1 -7 9 36 11 52 11 45 0z m-77 -6
c-3 -3 -17 -6 -30 -8 -13 -1 -30 -6 -38 -11 -8 -5 -53 -11 -100 -13 -47 -2
-92 -8 -100 -12 -8 -5 -29 -2 -45 5 -30 12 -30 12 30 20 33 4 78 11 100 15 47
9 191 13 183 4z m677 -24 c-3 -5 -10 -10 -16 -10 -5 0 -9 5 -9 10 0 6 7 10 16
10 8 0 12 -4 9 -10z m1881 -13 c4 -4 23 -7 43 -7 20 0 42 -4 49 -9 20 -12 -49
-21 -109 -14 -49 6 -65 15 -55 32 7 10 61 9 72 -2z m-2953 -14 c-7 -2 -21 -2
-30 0 -10 3 -4 5 12 5 17 0 24 -2 18 -5z m347 -13 c0 -5 -8 -10 -17 -10 -15 0
-16 2 -3 10 19 12 20 12 20 0z m1630 0 c0 -6 -19 -7 -47 -3 -65 8 -67 13 -5
13 29 0 52 -4 52 -10z m214 -49 c4 -5 -3 -7 -14 -4 -23 6 -26 13 -6 13 8 0 17
-4 20 -9z m-1067 -7 c-3 -3 -12 -4 -19 -1 -8 3 -5 6 6 6 11 1 17 -2 13 -5z
m558 -4 c4 -6 11 -8 16 -5 5 4 19 3 32 -1 l22 -8 -25 -7 c-46 -13 -67 -10 -73
11 -5 21 16 29 28 10z m-245 -10 c-14 -4 -38 -8 -55 -8 -25 -1 -27 1 -10 8 11
5 36 8 55 8 32 0 33 -1 10 -8z m1063 3 c-7 -2 -19 -2 -25 0 -7 3 -2 5 12 5 14
0 19 -2 13 -5z m-278 -26 c14 -2 20 -9 19 -24 0 -19 3 -21 30 -16 18 3 28 2
23 -3 -5 -5 -30 -9 -57 -10 -39 -1 -47 2 -42 14 3 10 1 13 -6 8 -10 -6 -52 26
-52 40 0 4 15 3 33 -1 17 -4 41 -8 52 -8z m70 -7 c3 -5 -1 -10 -9 -10 -9 0
-16 5 -16 10 0 6 4 10 9 10 6 0 13 -4 16 -10z m-33 -247 c-6 -2 -9 -10 -5 -15
4 -8 -2 -9 -18 -5 -13 4 -46 7 -74 8 l-50 2 50 7 c61 8 114 10 97 3z m848
-136 c-25 -11 -25 -11 10 -15 35 -4 34 -5 -18 -17 -68 -16 -201 -19 -237 -5
-50 19 -13 32 107 37 62 3 115 7 117 9 2 2 14 4 25 3 19 0 19 -1 -4 -12z m77
-37 c-19 -15 -31 -18 -49 -11 -21 9 -21 10 10 10 19 1 31 5 27 11 -3 6 4 10
16 10 21 0 21 0 -4 -20z m143 0 c9 -6 -6 -8 -47 -7 -34 1 -59 5 -57 9 7 11 86
10 104 -2z m-5803 -76 c-3 -4 -2 -14 3 -24 6 -12 5 -17 -6 -17 -8 0 -14 10
-14 24 0 13 5 23 12 23 6 0 8 -3 5 -6z m1443 -4 c0 -5 -5 -10 -11 -10 -5 0 -7
5 -4 10 3 6 8 10 11 10 2 0 4 -4 4 -10z m862 -32 c-6 -6 -15 -8 -19 -4 -4 4
-1 11 7 16 19 12 27 3 12 -12z m-517 -28 c-3 -5 -14 -10 -23 -9 -14 0 -13 2 3
9 27 11 27 11 20 0z m-62 -7 c-7 -2 -19 -2 -25 0 -7 3 -2 5 12 5 14 0 19 -2
13 -5z m-1740 -10 c-7 -2 -19 -2 -25 0 -7 3 -2 5 12 5 14 0 19 -2 13 -5z m81
-8 c20 -15 20 -15 0 -15 -11 0 -25 -5 -31 -11 -12 -12 -33 -4 -33 12 0 5 7 9
15 9 8 0 15 5 15 10 0 14 11 12 34 -5z m2213 -7 c-3 -8 -6 -5 -6 6 -1 11 2 17
5 13 3 -3 4 -12 1 -19z m-2297 -8 c-8 -5 -19 -10 -25 -10 -5 0 -3 5 5 10 8 5
20 10 25 10 6 0 3 -5 -5 -10z m4544 -112 c-6 -10 -42 -9 -69 2 -14 5 -7 8 27
7 26 0 45 -4 42 -9z m-206 -18 c1 -1 6 -3 11 -4 5 0 12 -4 15 -7 3 -3 -20 -4
-52 -2 -41 2 -51 0 -37 -6 16 -8 10 -10 -27 -10 -26 -1 -50 4 -53 9 -5 8 -11
8 -19 0 -7 -5 -24 -9 -37 -9 -13 1 -28 1 -34 -1 -19 -5 -45 0 -45 8 0 18 60
27 165 26 60 -1 111 -3 113 -4z m-833 -15 c44 -3 118 -8 165 -11 82 -6 140
-24 65 -20 -20 1 -39 -2 -42 -6 -2 -5 -9 -6 -14 -2 -5 3 -7 10 -4 15 10 15
-12 10 -25 -6 -9 -10 -17 -12 -23 -6 -6 6 -19 6 -35 0 -14 -5 -31 -8 -39 -5
-7 3 -13 1 -13 -4 0 -10 -94 -5 -111 6 -5 3 -9 -1 -10 -8 0 -10 -2 -10 -6 -1
-3 10 -10 10 -25 2 -11 -6 -31 -7 -46 -3 -48 13 -56 13 -64 1 -5 -9 -10 -9
-19 0 -8 8 -18 9 -31 2 -10 -6 -18 -6 -18 0 0 5 -32 9 -72 10 -85 1 -105 10
-27 13 30 0 59 2 64 3 6 2 51 4 100 5 74 3 82 4 45 10 l-45 6 35 6 c19 3 53 4
75 2 22 -2 76 -6 120 -9z m123 8 c-10 -2 -28 -2 -40 0 -13 2 -5 4 17 4 22 1
32 -1 23 -4z m322 -5 c0 -4 12 -8 26 -8 14 0 23 -4 20 -9 -3 -5 -48 -7 -98 -6
-119 4 -120 5 -73 20 43 14 125 16 125 3z m-717 -5 c-7 -2 -21 -2 -30 0 -10 3
-4 5 12 5 17 0 24 -2 18 -5z m-1368 -12 c-18 -7 -55 -4 -55 5 0 2 17 4 38 3
28 0 32 -2 17 -8z m2175 -1 c0 -5 -2 -10 -4 -10 -3 0 -8 5 -11 10 -3 6 -1 10
4 10 6 0 11 -4 11 -10z m-2163 -42 c-2 -7 -13 -13 -25 -13 -11 0 -24 -4 -28
-8 -15 -15 -24 -6 -12 13 14 22 73 29 65 8z m-34 -37 c3 -13 1 -18 -9 -14 -7
2 -10 11 -7 19 7 19 10 18 16 -5z m-1763 -29 c0 -5 -7 -17 -16 -28 -8 -10 -14
-14 -11 -9 2 6 7 18 10 28 7 17 17 23 17 9z m-40 -9 c0 -15 -15 -28 -31 -29
-11 -1 -15 5 -12 17 5 18 43 28 43 12z"/>
<path d="M1980 3273 c8 -3 23 -12 33 -21 9 -8 20 -12 24 -9 10 10 -29 36 -52
36 -14 0 -16 -2 -5 -6z"/>
<path d="M2070 3267 c14 -8 27 -12 30 -10 7 6 -23 23 -40 23 -8 0 -4 -6 10
-13z"/>
<path d="M3504 1523 c10 -10 46 -11 40 -1 -3 4 -15 8 -26 8 -12 0 -18 -3 -14
-7z"/>
<path d="M3450 4543 c-64 -10 -116 -26 -142 -44 -16 -11 -34 -19 -40 -17 -7 3
-20 -12 -30 -31 -21 -41 -22 -44 -7 -36 6 4 9 0 7 -11 -3 -20 -3 -20 102 -10
20 2 36 9 38 17 4 17 67 59 90 59 25 0 47 16 33 24 -6 4 -8 18 -5 32 6 25 5
25 -46 17z"/>
<path d="M333 4433 c-24 -9 -13 -24 15 -21 15 2 26 8 25 13 -2 12 -23 16 -40
8z"/>
<path d="M285 4410 c-3 -5 1 -10 10 -10 9 0 13 5 10 10 -3 6 -8 10 -10 10 -2
0 -7 -4 -10 -10z"/>
<path d="M275 4352 c-46 -25 -72 -62 -44 -62 7 0 20 -6 28 -14 14 -12 23 -12
64 1 59 17 81 51 52 83 -23 26 -39 25 -100 -8z"/>
<path d="M1606 4245 c-11 -8 -17 -18 -13 -21 10 -11 37 4 37 21 0 18 0 18 -24
0z"/>
<path d="M3030 4221 c-13 -9 -8 -25 8 -27 4 0 18 -5 32 -11 32 -13 155 -11
157 2 0 6 -3 9 -8 8 -5 -2 -37 4 -71 13 -99 25 -102 25 -118 15z"/>
<path d="M3312 4171 c-11 -7 -10 -10 3 -15 20 -7 38 1 30 15 -7 11 -16 11 -33
0z"/>
<path d="M4291 3914 c-12 -27 -11 -28 4 -12 10 9 16 21 13 28 -2 7 -10 -1 -17
-16z"/>
<path d="M3080 3830 c-21 -13 -7 -22 27 -18 27 3 27 4 7 15 -12 7 -26 8 -34 3z"/>
<path d="M6375 3820 c-3 -5 -1 -10 4 -10 6 0 11 5 11 10 0 6 -2 10 -4 10 -3 0
-8 -4 -11 -10z"/>
<path d="M2800 3810 c0 -5 5 -10 11 -10 5 0 7 5 4 10 -3 6 -8 10 -11 10 -2 0
-4 -4 -4 -10z"/>
<path d="M848 3693 c7 -3 16 -2 19 1 4 3 -2 6 -13 5 -11 0 -14 -3 -6 -6z"/>
<path d="M1915 3692 c-14 -15 0 -20 53 -20 31 0 68 0 81 -1 24 -1 38 5 30 13
-7 6 -158 13 -164 8z"/>
<path d="M772 3679 c-26 -10 -21 -29 7 -29 18 0 41 18 41 32 0 10 -19 9 -48
-3z"/>
<path d="M1698 3683 c-36 -3 -48 -9 -53 -24 -4 -11 -4 -23 -1 -26 3 -4 6 1 6
10 0 13 11 15 68 13 66 -2 68 -2 50 16 -10 10 -19 17 -20 16 -2 -1 -24 -3 -50
-5z"/>
<path d="M1822 3667 c10 -8 15 -16 12 -19 -3 -3 9 -3 26 1 45 9 38 26 -12 29
-38 2 -41 0 -26 -11z"/>
<path d="M2095 3670 c3 -5 34 -10 68 -10 44 0 58 3 47 10 -20 13 -123 13 -115
0z"/>
<path d="M6234 3515 c-10 -8 -14 -15 -8 -15 5 0 19 7 30 15 10 8 14 15 8 15
-5 0 -19 -7 -30 -15z"/>
<path d="M6088 3293 c6 -2 18 -2 25 0 6 3 1 5 -13 5 -14 0 -19 -2 -12 -5z"/>
<path d="M6283 2983 c-25 -5 -30 -18 -12 -29 7 -4 16 1 21 10 6 11 16 15 29
11 11 -4 19 -2 19 4 0 11 -16 12 -57 4z"/>
<path d="M5830 2850 c-9 -6 -10 -10 -3 -10 6 0 15 5 18 10 8 12 4 12 -15 0z"/>
<path d="M108 2813 c7 -3 16 -2 19 1 4 3 -2 6 -13 5 -11 0 -14 -3 -6 -6z"/>
<path d="M116 2686 c-15 -12 -16 -16 -5 -20 38 -12 77 -14 87 -4 7 7 20 5 44
-6 18 -10 53 -19 78 -22 44 -5 44 -5 20 10 -14 8 -37 15 -52 16 -15 0 -31 7
-36 16 -12 22 -111 29 -136 10z"/>
<path d="M1976 2651 c-3 -5 1 -11 9 -15 15 -6 29 7 18 18 -9 9 -21 8 -27 -3z"/>
<path d="M2035 2651 c19 -9 19 -10 1 -10 -36 -2 -11 -9 51 -15 37 -4 64 -2 68
4 3 5 3 10 -2 11 -25 2 -72 8 -103 13 -26 5 -30 4 -15 -3z"/>
<path d="M215 2614 c-33 -7 -84 -15 -114 -19 -47 -6 -53 -5 -48 9 5 12 0 16
-23 16 -28 0 -29 -2 -18 -20 7 -11 16 -20 19 -20 4 0 9 -7 13 -15 4 -12 0 -14
-19 -9 -22 5 -25 3 -25 -22 0 -42 13 -58 36 -46 11 5 40 8 67 5 26 -3 54 -2
63 1 14 5 12 9 -7 26 l-24 19 35 1 c53 0 67 -13 41 -39 -11 -11 -21 -25 -21
-30 0 -5 -18 -9 -40 -9 -22 0 -40 3 -40 9 0 5 -11 9 -25 9 -14 0 -25 -4 -25
-9 0 -4 -12 -20 -26 -34 -41 -41 -6 -66 44 -31 12 8 27 12 32 9 6 -3 10 1 10
9 0 9 5 16 10 16 10 0 14 -13 11 -36 -1 -6 45 -11 129 -12 83 -2 130 1 130 8
0 13 33 13 46 0 12 -12 114 -1 114 13 0 5 -13 7 -29 4 -18 -4 -33 -1 -40 7
-19 23 63 39 199 41 69 0 139 -2 155 -5 40 -7 108 2 112 16 2 7 -6 10 -23 6
-19 -3 -25 -1 -20 7 4 6 18 11 30 11 26 0 96 27 96 37 0 10 -187 -5 -210 -17
-37 -20 -310 -10 -310 11 0 4 18 11 41 16 51 10 52 25 2 40 -68 21 -128 16
-159 -12 -24 -22 -35 -25 -89 -23 -33 1 -66 -1 -72 -5 -11 -7 -33 20 -33 41 0
5 20 7 45 4 45 -5 58 6 33 25 -9 6 -34 5 -73 -3z m275 -58 c0 -11 -19 -15 -25
-6 -3 5 1 10 9 10 9 0 16 -2 16 -4z m8 -54 l26 -17 -38 -3 c-24 -2 -42 2 -47
10 -5 8 -9 9 -9 2 0 -15 -73 -26 -116 -18 -20 4 -34 12 -34 21 0 11 7 13 30 8
17 -4 36 -2 43 3 30 25 103 22 145 -6z m-248 -17 c10 -13 9 -15 -8 -15 -15 0
-20 5 -16 15 4 8 7 15 9 15 1 0 8 -7 15 -15z"/>
<path d="M2058 2593 c17 -7 15 -21 -5 -26 -10 -3 3 -5 30 -6 26 0 47 -5 47
-11 0 -13 37 -13 45 -1 3 6 -15 13 -41 17 -25 3 -48 13 -51 20 -3 8 -13 14
-22 13 -10 0 -11 -2 -3 -6z"/>
<path d="M745 2540 c-4 -6 10 -10 35 -10 23 0 39 4 36 8 -7 12 -64 14 -71 2z"/>
<path d="M1085 2520 c3 -5 13 -10 22 -10 9 0 13 -6 9 -15 -9 -25 56 -49 112
-40 26 4 61 8 77 9 58 4 65 6 65 15 0 5 -31 12 -69 16 -45 4 -71 12 -75 21 -4
10 -25 14 -76 14 -45 0 -69 -4 -65 -10z"/>
<path d="M10 2460 c0 -5 5 -10 10 -10 6 0 10 5 10 10 0 6 -4 10 -10 10 -5 0
-10 -4 -10 -10z"/>
<path d="M1740 2454 c8 -4 34 -15 57 -25 23 -11 49 -19 58 -19 9 0 25 -4 35
-10 10 -5 40 -7 67 -3 l48 7 -44 13 c-24 7 -60 14 -80 15 -20 1 -39 6 -42 10
-3 5 -30 11 -60 13 -30 3 -47 2 -39 -1z"/>
<path d="M988 2443 c7 -3 16 -2 19 1 4 3 -2 6 -13 5 -11 0 -14 -3 -6 -6z"/>
<path d="M900 2430 c0 -6 7 -10 15 -10 8 0 15 2 15 4 0 2 -7 6 -15 10 -8 3
-15 1 -15 -4z"/>
<path d="M2122 2416 c10 -7 15 -16 11 -19 -3 -4 1 -7 9 -7 9 0 18 8 20 18 4
13 -2 17 -26 19 -28 2 -29 1 -14 -11z"/>
<path d="M3130 2385 c0 -9 9 -15 25 -15 14 0 25 -4 25 -10 0 -15 -47 -12 -81
6 -33 17 -51 12 -30 -9 7 -7 47 -13 93 -16 64 -2 80 -1 76 10 -3 8 -21 19 -42
24 -20 6 -34 14 -30 18 4 4 -2 7 -14 7 -13 0 -22 -6 -22 -15z"/>
<path d="M2918 2323 c7 -3 16 -2 19 1 4 3 -2 6 -13 5 -11 0 -14 -3 -6 -6z"/>
<path d="M1030 2311 c-45 -9 -60 -18 -60 -38 0 -12 7 -14 32 -9 17 3 39 13 48
21 11 10 29 13 56 10 38 -4 38 -4 14 10 -27 16 -37 16 -90 6z"/>
<path d="M2225 2290 c3 -5 8 -10 11 -10 2 0 4 5 4 10 0 6 -5 10 -11 10 -5 0
-7 -4 -4 -10z"/>
<path d="M2260 2291 c0 -12 25 -19 68 -19 21 -1 32 4 29 11 -4 15 -97 22 -97
8z"/>
<path d="M1292 2280 c14 -4 41 -4 60 0 28 7 24 8 -27 8 -46 0 -54 -2 -33 -8z"/>
<path d="M2705 2250 c3 -5 8 -10 11 -10 2 0 4 5 4 10 0 6 -5 10 -11 10 -5 0
-7 -4 -4 -10z"/>
<path d="M335 2220 c3 -5 12 -7 20 -3 21 7 19 13 -6 13 -11 0 -18 -4 -14 -10z"/>
<path d="M4213 2183 c15 -2 39 -2 55 0 15 2 2 4 -28 4 -30 0 -43 -2 -27 -4z"/>
<path d="M2367 2166 c12 -9 29 -13 39 -9 12 4 15 3 10 -5 -7 -12 5 -16 32 -13
6 1 12 -5 12 -14 0 -10 10 -15 31 -15 17 0 39 -4 49 -10 25 -13 172 -38 245
-41 50 -2 60 0 59 14 -1 13 5 15 27 10 16 -3 29 -1 29 4 0 16 -145 53 -227 58
-43 3 -93 8 -110 11 -20 3 -33 1 -33 -6 0 -5 -12 -10 -27 -9 -25 0 -26 1 -8
10 16 7 14 9 -12 6 -18 -2 -34 1 -36 6 -1 5 -25 11 -52 14 -48 5 -49 4 -28
-11z m453 -76 c0 -5 -14 -10 -31 -10 -17 0 -28 4 -24 10 3 6 17 10 31 10 13 0
24 -4 24 -10z"/>
<path d="M0 2146 c0 -9 18 -15 53 -20 79 -9 167 -7 167 4 0 6 -13 10 -29 10
-17 0 -33 5 -36 10 -3 6 -40 10 -81 10 -56 0 -74 -3 -74 -14z"/>
<path d="M3653 2133 c9 -2 25 -2 35 0 9 3 1 5 -18 5 -19 0 -27 -2 -17 -5z"/>
<path d="M4110 2121 c-17 -10 -252 -22 -444 -22 -71 0 -124 -4 -116 -9 17 -10
-254 -26 -390 -22 -58 1 -133 3 -167 3 -52 0 -63 3 -63 17 -1 16 -2 16 -14 0
-7 -10 -23 -18 -35 -18 -11 0 -21 -4 -21 -9 0 -14 97 -24 236 -25 67 -1 120
-4 119 -7 -5 -7 137 -32 160 -28 38 8 18 24 -35 31 -30 3 27 4 126 1 100 -3
184 -1 187 4 3 5 74 10 158 12 83 1 177 7 208 12 31 5 85 9 121 10 77 1 132
17 62 18 -26 1 -41 5 -37 11 3 6 31 10 62 10 31 0 53 3 49 7 -10 11 -149 14
-166 4z m-723 -107 c-3 -3 -12 -4 -19 -1 -8 3 -5 6 6 6 11 1 17 -2 13 -5z"/>
<path d="M1297 2049 c6 -23 9 -24 16 -5 3 8 0 17 -7 19 -10 4 -12 -1 -9 -14z"/>
<path d="M1609 1917 c6 -8 8 -17 4 -20 -3 -4 -1 -7 6 -7 8 0 10 -7 6 -20 -8
-25 7 -26 29 -1 11 12 14 21 7 26 -6 3 -11 1 -11 -5 0 -6 -5 -8 -11 -5 -6 4
-8 9 -5 12 6 6 -19 33 -30 33 -3 0 -1 -6 5 -13z"/>
<path d="M1655 1920 c-3 -5 1 -10 10 -10 9 0 13 5 10 10 -3 6 -8 10 -10 10 -2
0 -7 -4 -10 -10z"/>
<path d="M5228 1923 c7 -3 16 -2 19 1 4 3 -2 6 -13 5 -11 0 -14 -3 -6 -6z"/>
<path d="M1650 1850 c-6 -11 -9 -20 -7 -20 2 0 14 9 27 20 18 16 19 20 7 20
-9 0 -21 -9 -27 -20z"/>
<path d="M3820 1841 c0 -19 126 -27 180 -12 18 5 3 9 -54 14 -104 9 -126 9
-126 -2z"/>
<path d="M4275 1825 l-40 -14 55 5 c30 3 91 9 135 13 l80 8 -95 1 c-58 0 -111
-5 -135 -13z"/>
<path d="M3553 1673 c9 -2 23 -2 30 0 6 3 -1 5 -18 5 -16 0 -22 -2 -12 -5z"/>
<path d="M3613 1673 c9 -2 23 -2 30 0 6 3 -1 5 -18 5 -16 0 -22 -2 -12 -5z"/>
<path d="M5220 1639 c-24 -8 -24 -8 5 -7 17 0 38 -3 48 -7 11 -4 23 -3 30 4 8
8 6 11 -10 11 -12 0 -27 2 -35 4 -7 2 -24 0 -38 -5z"/>
<path d="M4153 1623 c9 -2 25 -2 35 0 9 3 1 5 -18 5 -19 0 -27 -2 -17 -5z"/>
<path d="M5113 1613 c9 -2 23 -2 30 0 6 3 -1 5 -18 5 -16 0 -22 -2 -12 -5z"/>
<path d="M5380 1590 c36 -12 60 -12 60 0 0 6 -19 10 -42 9 -37 -1 -39 -2 -18
-9z"/>
</g>
</svg>
